# xmcd
#
# Track frame offsets:
#	150
#	4112
#	9060
#	18825
#	35250
#	38487
#	43357
#	47555
#	55957
#	58420
#	62730
#	66912
#	75807
#	85765
#	95350
#	100750
#	112022
#	123830
#	149827
#	162195
#	185247
#	193084
#	210345
#	213725
#	217255
#	222625
#	235672
#	238770
#	241595
#	246780
#	252757
#	257262
#	267005
#	270665
#	273032
#	280137
#	294422
#	300902
#	312815
#
# Disc length: 4185 seconds
#
# Revision: 1
# Processed by: cddbd v1.4PL0 Copyright (c) Steve Scherf et al.
# Submitted via: audiograbber 1.81.01
#
DISCID=24105727
DTITLE=Stevie Ray Vaughan - The Guitar Style of SRV
DYEAR=1997
DGENRE=Blues
TTITLE0=Intro
TTITLE1=Tuning in E Flat
TTITLE2=Texas Flood
TTITLE3=Texas Flood (Slow)
TTITLE4=Tell Me
TTITLE5=Tell Me (Slow)
TTITLE6=Tell Me (Solo)
TTITLE7=Tell Me (Solo, Slow)
TTITLE8=Mary Had a Little Lamb
TTITLE9=Mary Had a Little Lamb (Slow)
TTITLE10=Mary Had a Little Lamb (Solo)
TTITLE11=Mary Had a Little Lamb (Solo, SLow)
TTITLE12=Couldn't Stand the Weather
TTITLE13=Couldn't Stand the Weather (Slow)
TTITLE14=Couldn't Stand the Weather (Solo)
TTITLE15=Couldn't Stand the Weather (Solo, Slow)
TTITLE16=VooDoo Chile
TTITLE17=VooDoo Chile (Slow)
TTITLE18=Tin Pan Alley
TTITLE19=Tin Pan Alley (Slow)
TTITLE20=Say What
TTITLE21=Say What (Slow)
TTITLE22=Gone Home
TTITLE23=Gone Home (Slow)
TTITLE24=Gone Home (Solo)
TTITLE25=Gone Home (Solo, Slow)
TTITLE26=Change It
TTITLE27=Change It (Slow)
TTITLE28=Change It (Solo)
TTITLE29=Change It (Solo, Slow)
TTITLE30=Crossfire (Solo)
TTITLE31=Crossfire (Solo, Slow)
TTITLE32=Tightrope
TTITLE33=Tightrope (Slow)
TTITLE34=Tightrope (Solo)
TTITLE35=Tightrope (Solo, Slow)
TTITLE36=Little Wing Intro
TTITLE37=Little Wing Intro (Slow)
TTITLE38=Outro
EXTD=Instructional
EXTT0=
EXTT1=
EXTT2=
EXTT3=
EXTT4=
EXTT5=
EXTT6=
EXTT7=
EXTT8=
EXTT9=
EXTT10=
EXTT11=
EXTT12=
EXTT13=
EXTT14=
EXTT15=
EXTT16=
EXTT17=
EXTT18=
EXTT19=
EXTT20=
EXTT21=
EXTT22=
EXTT23=
EXTT24=
EXTT25=
EXTT26=
EXTT27=
EXTT28=
EXTT29=
EXTT30=
EXTT31=
EXTT32=
EXTT33=
EXTT34=
EXTT35=
EXTT36=
EXTT37=
EXTT38=
PLAYORDER=
